<?xml version="1.0" encoding="UTF-8" standalone="no"?>
<!-- Created with Inkscape (http://www.inkscape.org/) -->

<svg
   width="125.4125mm"
   height="157.69167mm"
   viewBox="0 0 125.4125 157.69167"
   version="1.1"
   id="svg1"
   xml:space="preserve"
   xmlns:inkscape="http://www.inkscape.org/namespaces/inkscape"
   xmlns:sodipodi="http://sodipodi.sourceforge.net/DTD/sodipodi-0.dtd"
   xmlns="http://www.w3.org/2000/svg"
   xmlns:svg="http://www.w3.org/2000/svg"><sodipodi:namedview
     id="namedview1"
     pagecolor="#505050"
     bordercolor="#ffffff"
     borderopacity="1"
     inkscape:showpageshadow="0"
     inkscape:pageopacity="0"
     inkscape:pagecheckerboard="1"
     inkscape:deskcolor="#505050"
     inkscape:document-units="mm" /><defs
     id="defs1" /><g
     inkscape:label="Capa 1"
     inkscape:groupmode="layer"
     id="layer1"
     transform="translate(0.2378948,-0.10353427)"><path
       style="fill:#000000"
       d="m 9.9023178,156.64237 c -1.2566478,-1.30159 -1.6232702,-2.55549 -1.1587357,-3.96305 0.1664564,-0.50436 5.8337199,-9.21264 12.5939189,-19.35173 6.760199,-10.13908 12.29127,-18.54481 12.29127,-18.67938 0,-0.13457 -0.982265,-0.24538 -2.182812,-0.24624 -5.578646,-0.004 -12.081627,-1.69472 -16.073437,-4.17901 -4.869193,-3.03032 -7.4042618,-6.23921 -9.0371049,-11.439168 -0.5416963,-1.725088 -0.617171,-2.477334 -0.5963565,-5.9438 0.021028,-3.502035 0.1076498,-4.248779 0.7365945,-6.35 2.1300372,-7.116172 5.8497629,-11.86131 11.4104079,-14.555904 3.690884,-1.78854 4.881918,-2.037194 10.304896,-2.151374 l 4.748646,-0.09998 0.942633,-1.782828 c 2.049932,-3.877093 4.806625,-7.19285 7.645707,-9.196272 1.027117,-0.724793 1.872643,-1.380229 1.878947,-1.456523 0.0063,-0.0763 -0.827725,-1.147857 -1.853398,-2.38125 -1.215623,-1.461812 -2.02161,-2.214668 -2.315104,-2.162492 -3.422239,0.608386 -4.779927,0.65043 -7.289226,0.225732 C 22.997348,51.414008 13.709947,45.186509 7.0606314,36.240545 3.9499504,32.055446 0.94319633,25.770059 0.38652816,22.288847 0.29693967,21.728592 0.11979467,21.270201 -0.0071274,21.270201 c -0.12692207,0 -0.2307674,-1.666875 -0.2307674,-3.704167 0,-2.037291 0.10417968,-3.704166 0.23151041,-3.704166 0.12733073,0 0.30332248,-0.359061 0.39109278,-0.797912 C 1.1684299,9.1453482 5.0445378,5.5580841 9.4985657,4.6292543 13.94969,3.70103 20.075801,5.0175651 25.778881,8.1279841 31.16348,11.064706 37.516325,16.736164 41.092787,21.799367 c 6.232868,8.82388 8.40003,18.242274 5.63576,24.492778 l -0.617269,1.395755 2.820726,3.370265 2.820726,3.370266 2.910416,-0.05375 c 4.553034,-0.08409 11.159384,1.04916 15.307768,2.625887 0.74854,0.284507 1.480044,0.517154 1.625565,0.516992 0.145521,-1.61e-4 1.504638,-1.841147 3.020261,-4.091081 l 2.755677,-4.090789 -0.818804,-1.795764 c -1.557007,-3.414757 -1.77552,-4.561554 -1.778975,-9.336389 -0.0035,-4.902492 0.334476,-6.995566 1.88008,-11.641667 C 80.119212,16.147574 87.88528,6.4190181 95.938146,2.405513 c 1.936335,-0.9650593 4.110504,-1.77281207 4.771744,-1.77281207 0.2132,0 0.38763,-0.1190625 0.38763,-0.26458333 0,-0.16105073 1.19063,-0.26458333 3.04271,-0.26458333 1.85208,0 3.04271,0.1035326 3.04271,0.26458333 0,0.14552083 0.15957,0.26458333 0.35461,0.26458333 0.19504,0 1.08701,0.36597892 1.98215,0.81328647 3.04196,1.5200862 5.1297,4.2599539 6.43659,8.4471301 0.54597,1.7492425 0.61851,2.5016655 0.61224,6.3499995 -0.005,3.20746 -0.13531,4.962256 -0.49033,6.614584 -1.79573,8.357727 -6.33554,16.749242 -12.3267,22.785051 -5.560691,5.602135 -11.134651,8.531197 -16.280021,8.554996 -1.164167,0.0054 -2.414323,-0.07231 -2.778125,-0.172651 -0.614039,-0.169362 -0.832166,0.07494 -3.042708,3.407784 -1.309688,1.974624 -2.418683,3.687808 -2.464435,3.807076 -0.04575,0.119268 0.387896,0.528597 0.96366,0.909619 l 1.046844,0.692769 1.814466,-0.539726 c 2.613364,-0.777364 4.859677,-1.076062 8.109473,-1.078336 4.942298,-0.0035 8.874338,1.196806 12.243836,3.737465 3.9563,2.983121 7.09617,8.717565 8.18171,14.942554 2.05858,11.804763 -4.41943,20.986048 -16.792694,23.800288 -1.021938,0.23243 -1.858069,0.46935 -1.858069,0.52647 0,0.0571 1.799196,2.28001 3.998213,4.93973 2.199017,2.65973 5.76096,6.97899 7.91542,9.59837 3.92277,4.76925 19.59714,23.79527 20.0989,24.39664 0.14665,0.17576 0.26663,0.92308 0.26663,1.6607 0,1.14266 -0.12725,1.48112 -0.85989,2.28701 -1.53926,1.69317 -3.27708,2.13307 -5.06847,1.283 -0.7535,-0.35756 -8.5796,-9.63832 -24.184298,-28.67949 -1.500557,-1.83101 -2.845203,-3.37053 -2.988102,-3.42115 -0.146768,-0.052 -0.197464,0.17825 -0.116512,0.52916 0.201172,0.87207 0.673526,7.14133 0.673526,8.93931 v 1.49439 l -8.135937,0.32133 c -14.320112,0.56556 -31.596514,2.50262 -42.885057,4.80832 -3.279467,0.66984 -4.880199,0.89575 -4.940699,0.69728 -0.04922,-0.16147 -0.2786,-1.65428 -0.509728,-3.31736 -0.231127,-1.66308 -0.458953,-3.0625 -0.50628,-3.10983 -0.04733,-0.0473 -4.521779,6.56973 -9.943226,14.70457 -5.421447,8.13484 -10.27436,15.15997 -10.784252,15.61139 -0.806068,0.71364 -1.122321,0.8202 -2.422926,0.8164 -1.414852,-0.004 -1.555665,-0.0663 -2.6004312,-1.14846 z M 38.390798,118.90216 C 52.070017,98.384113 63.262104,81.499995 63.262104,81.381897 c 0,-0.118098 -0.163612,-0.438478 -0.363584,-0.711955 -0.331328,-0.453118 -2.587745,2.839034 -25.433976,37.108618 -16.313104,24.46982 -25.015214,37.74964 -24.912428,38.01749 0.08688,0.22641 0.340082,0.41165 0.56267,0.41165 0.243708,0 10.298866,-14.84068 25.276012,-37.30554 z m 85.064012,25.99337 c 0,-0.30385 -1.01203,-1.77873 -2.24896,-3.27751 -1.23692,-1.49878 -4.31425,-5.22885 -6.83851,-8.28904 -2.52425,-3.06019 -6.46115,-7.82618 -8.74867,-10.59107 -2.28752,-2.7649 -8.430512,-10.2063 -13.651102,-16.53646 C 86.746978,99.871294 79.571797,91.179732 76.022721,86.886867 72.473646,82.594002 68.061315,77.249816 66.217543,75.010897 64.37377,72.771978 62.260642,70.212134 61.521701,69.322355 57.683448,64.700608 48.717623,53.81757 48.036933,52.954063 c -0.430166,-0.545699 -0.994216,-0.992184 -1.253445,-0.992188 -1.145629,-1.9e-5 -0.68944,0.883325 2.354413,4.558984 4.844351,5.849881 9.630246,11.638648 15.589823,18.856633 22.047346,26.702798 35.466556,42.968098 38.730336,46.944668 2.09866,2.55699 5.19888,6.31596 6.88937,8.35325 1.6905,2.03729 5.08742,6.14495 7.54871,9.12812 2.46128,2.98318 4.59981,5.51132 4.75228,5.6181 0.44237,0.30978 0.80639,0.0723 0.80639,-0.5261 z M 54.266271,124.47022 c 9.76399,-1.39762 17.882865,-2.21394 26.775992,-2.69224 3.245027,-0.17452 5.932277,-0.33998 5.971665,-0.36767 0.131829,-0.0927 -0.489705,-5.24326 -1.142895,-9.47103 l -0.646435,-4.18404 -2.271082,-2.76127 c -2.014006,-2.44871 -2.366032,-2.76114 -3.109893,-2.76012 -2.704695,0.004 -18.400121,1.65831 -25.312768,2.66847 -4.988553,0.72898 -4.95497,0.71929 -5.591435,1.61313 l -0.571575,0.8027 3.676817,-0.18164 3.676818,-0.18165 -4.606934,1.59528 c -2.533814,0.8774 -4.704881,1.74968 -4.824594,1.9384 -0.409507,0.64555 -0.224996,0.77231 0.898715,0.61744 1.888413,-0.26028 7.130976,-0.66695 8.532813,-0.66192 1.264591,0.005 1.171272,0.055 -2.116667,1.14447 -4.065201,1.34701 -8.901172,3.13015 -8.790176,3.24115 0.04312,0.0431 2.514801,-0.15163 5.492622,-0.43278 2.977821,-0.28115 6.009533,-0.50404 6.737137,-0.49532 l 1.322917,0.0159 -1.475746,0.44149 c -2.81365,0.84173 -11.117785,3.87245 -10.852631,3.96084 0.146551,0.0489 2.045128,-0.0965 4.21906,-0.32306 4.093025,-0.4265 9.631346,-0.77289 9.16765,-0.57338 -0.145521,0.0626 -1.276614,0.42788 -2.513541,0.81172 -2.661886,0.82601 -9.486725,3.27045 -10.054167,3.60108 -0.264016,0.15384 -0.131157,0.18661 0.396875,0.0979 1.663672,-0.27952 11.400537,-1.17957 12.55187,-1.16027 l 1.206463,0.0202 -1.5875,0.47928 c -1.475216,0.44539 -5.598994,1.86355 -9.657291,3.32112 -0.945886,0.33973 -1.541198,0.62545 -1.322917,0.63495 0.218281,0.009 2.837656,-0.3321 5.820833,-0.75911 z M 23.13407,105.3102 c -1.470063,-1.67457 -2.925411,-4.2591 -3.595278,-6.384791 -0.873555,-2.772059 -0.814784,-7.459213 0.126839,-10.115717 0.715895,-2.019683 1.641846,-3.761016 2.575334,-4.843146 0.458802,-0.531859 0.420541,-0.35992 -0.208274,0.935946 -2.897471,5.971124 -1.920069,12.418314 2.600166,17.151358 0.997301,1.04425 2.560242,2.36043 3.473203,2.92485 l 1.65993,1.0262 -1.442047,-1.59766 c -4.562272,-5.054603 -5.921321,-11.328593 -3.583837,-16.544628 0.602992,-1.345562 2.361242,-3.367403 1.883936,-2.16637 -0.793056,1.995546 -1.003688,2.889815 -1.121741,4.7625 -0.307039,4.870589 2.008309,9.196441 6.605116,12.340588 0.836745,0.57232 1.521354,0.91709 1.521354,0.76615 0,-0.15095 -0.0893,-0.27489 -0.198437,-0.27543 -0.372069,-0.002 -2.648399,-3.03739 -3.471431,-4.629225 -1.681915,-3.253019 -2.054577,-7.114911 -0.952112,-9.866734 0.678986,-1.69479 1.065096,-1.284645 0.965869,1.025995 -0.192474,4.482074 2.644093,9.229778 6.845053,11.456904 l 1.441267,0.76409 -1.087006,-1.16096 c -3.009156,-3.213882 -4.61571,-7.077747 -4.168082,-10.024503 l 0.180862,-1.190625 0.297535,1.455208 c 0.163644,0.800365 0.58749,2.031131 0.94188,2.735035 0.913553,1.814538 3.700584,4.338022 6.263979,5.671647 1.182252,0.615078 2.214164,1.118318 2.293138,1.118318 0.212552,0 16.127788,-23.897372 16.132044,-24.222918 0.002,-0.152969 -2.65542,-3.508185 -5.905377,-7.456035 l -5.909013,-7.177909 -1.47903,0.746613 c -4.189794,2.115001 -7.94806,6.03522 -13.833902,14.430041 -0.816229,1.164167 -1.910589,2.592917 -2.431909,3.175 l -0.947856,1.058333 1.30625,-3.828798 c 0.718438,-2.105839 1.249368,-3.885682 1.179844,-3.955206 -0.229026,-0.229025 -2.594291,0.526763 -4.21044,1.345388 -4.999175,2.532224 -9.620037,8.388433 -11.23914,14.243825 -0.742233,2.684244 -0.748366,6.132851 -0.01513,8.506336 0.586787,1.899422 2.08803,4.34692 3.49605,5.69966 0.939254,0.90238 4.403194,3.2565 4.791734,3.2565 0.128332,0 -0.223272,-0.52012 -0.781343,-1.15583 z m 34.042618,-6.238351 c 1.78387,-0.244962 11.203812,-1.290519 15.610416,-1.732662 0.945886,-0.09491 2.050087,-0.312614 2.45378,-0.483793 l 0.733988,-0.311235 -5.45416,-6.614584 c -2.999787,-3.63802 -5.541406,-6.706595 -5.648041,-6.819053 -0.166785,-0.175894 -11.135566,15.943385 -11.135566,16.36438 0,0.0847 0.327421,0.08998 0.727604,0.01173 0.400182,-0.07826 1.620573,-0.264907 2.711979,-0.41478 z m 43.458632,-1.176594 c 3.39862,-2.04654 5.73098,-4.748726 7.10385,-8.230263 0.56523,-1.433389 0.625,-1.98562 0.61571,-5.688542 -0.009,-3.766163 -0.0708,-4.284684 -0.752,-6.35 -2.25542,-6.838707 -5.58904,-10.635369 -10.829343,-12.333551 -1.793939,-0.581347 -2.671983,-0.703161 -5.201016,-0.721555 -3.050243,-0.02218 -6.879167,0.473105 -6.879167,0.889853 0,0.340545 5.86341,5.55067 6.246656,5.55067 0.185184,0 0.418151,0.131794 0.517705,0.292876 0.440333,0.712474 -2.004897,-0.258277 -8.173954,-3.245043 -3.612932,-1.74921 -6.603059,-3.140012 -6.644727,-3.09067 -0.04167,0.04934 -1.689916,2.515965 -3.662773,5.481386 l -3.587014,5.391674 3.733091,4.530201 c 2.0532,2.491611 5.104386,6.186772 6.780415,8.211469 l 3.047324,3.681267 1.544122,-1.678861 c 1.800513,-1.957623 3.530708,-5.264928 3.873074,-7.403466 l 0.23297,-1.455208 0.02779,1.984375 c 0.04257,3.039459 -1.085629,6.405432 -3.155136,9.413357 -0.754822,1.097097 -0.799405,1.263507 -0.435899,1.627013 0.363506,0.363506 0.484869,0.347993 1.186579,-0.151668 2.384145,-1.697661 4.683634,-4.981466 5.734315,-8.188938 0.485469,-1.482019 0.662565,-4.676184 0.333052,-6.007056 -0.154162,-0.622644 -0.1355,-0.693271 0.08657,-0.327633 0.155704,0.256365 0.463014,1.327927 0.682912,2.38125 0.835829,4.003674 -0.543115,9.172239 -3.470162,13.006878 -0.530397,0.694858 -0.915983,1.311754 -0.856857,1.370879 0.234205,0.234206 3.315301,-2.001922 4.622441,-3.35477 1.577592,-1.632759 3.028122,-4.225715 3.501268,-6.25884 0.62731,-2.695574 0.315936,-6.520294 -0.705819,-8.669847 L 95.774,77.758742 96.309183,78.4202 c 1.777806,2.197276 2.66012,7.859785 1.773002,11.37876 -0.551949,2.189444 -1.747655,4.643784 -3.089181,6.340942 -0.578347,0.731664 -0.975487,1.330298 -0.882532,1.330298 0.505594,0 3.954087,-2.593774 5.01015,-3.76837 3.726878,-4.145184 4.341968,-10.506538 1.532708,-15.851572 -1.06175,-2.020132 -1.054065,-2.110643 0.0527,-0.620683 2.14466,2.887214 3.30191,6.318245 3.30191,9.789584 0,3.792484 -1.38043,7.338151 -4.00215,10.279657 -0.732515,0.821865 -1.226023,1.494301 -1.096682,1.494301 0.129341,0 0.906137,-0.404038 1.726212,-0.897862 z M 74.217462,65.164485 c 3.404582,-5.107473 5.952553,-9.18307 5.872108,-9.392708 -0.427295,-1.113512 -1.238074,-0.124963 -6.973091,8.502005 -5.275719,7.936063 -5.854043,8.912501 -5.558751,9.38534 0.18127,0.29026 0.400668,0.527745 0.48755,0.527745 0.08688,0 2.864365,-4.060072 6.172184,-9.022382 z m -7.773133,0.529081 c 1.191712,-1.75829 2.064558,-3.288675 1.939658,-3.400853 -0.547567,-0.491797 -10.243013,-2.064 -11.257213,-1.825458 -0.270849,0.0637 0.739634,1.464449 3.165865,4.38856 1.960031,2.362244 3.658474,4.236411 3.774317,4.164816 0.115844,-0.07159 1.185662,-1.568775 2.377373,-3.327065 z M 37.445796,48.771415 c 2.46098,-0.920771 4.991664,-3.62176 5.72832,-6.113815 C 46.642443,30.924499 34.690878,13.846834 19.949648,9.4720147 17.05564,8.6131471 13.142343,8.4817591 10.874605,9.1673223 9.3893038,9.6163459 6.7317137,11.130087 6.9846404,11.383014 c 0.076937,0.07694 0.4181065,-0.03807 0.7581543,-0.255578 1.037358,-0.663525 3.4047323,-1.2345694 5.0980613,-1.2297243 8.658435,0.024774 19.989689,8.2589063 25.536309,18.5565813 6.127666,11.376428 3.003165,20.313254 -7.107595,20.329434 -2.247384,0.0036 -2.323819,0.148944 -0.269454,0.512389 1.970271,0.348568 4.707116,0.125779 6.44568,-0.524701 z M 93.56341,48.572539 c 7.48936,-2.950603 14.60296,-11.184043 17.72565,-20.516065 2.20867,-6.600511 2.23417,-13.452534 0.0661,-17.766481 -0.69635,-1.385578 -2.12394,-3.1315397 -3.16895,-3.8756499 -0.81842,-0.5827651 -0.81332,-0.5660889 0.26262,0.8589822 2.22496,2.9469347 2.86324,5.4798197 2.61467,10.3758167 -0.23001,4.530398 -1.09768,7.757609 -3.3612,12.501546 -5.22314,10.946813 -14.920582,18.64707 -21.807264,17.316064 -3.630027,-0.701584 -6.124477,-3.314438 -7.420553,-7.772784 -0.244578,-0.84132 -0.50275,-1.47161 -0.573715,-1.400645 -0.07097,0.07097 0.05239,1.090924 0.274133,2.266577 0.822651,4.361685 3.094776,7.293198 6.62935,8.553238 2.168357,0.772998 6.029829,0.534674 8.759139,-0.540599 z"
       id="path1" /></g></svg>
