<?xml version="1.0" encoding="UTF-8" standalone="no"?>
<!-- Created with Inkscape (http://www.inkscape.org/) -->

<svg
   version="1.1"
   id="svg1"
   width="500"
   height="500"
   viewBox="0 0 500 500"
   sodipodi:docname="LogoApple.svg"
   inkscape:version="1.3 (0e150ed6c4, 2023-07-21)"
   xmlns:inkscape="http://www.inkscape.org/namespaces/inkscape"
   xmlns:sodipodi="http://sodipodi.sourceforge.net/DTD/sodipodi-0.dtd"
   xmlns="http://www.w3.org/2000/svg"
   xmlns:svg="http://www.w3.org/2000/svg">
  <sodipodi:namedview
     id="namedview1"
     pagecolor="#505050"
     bordercolor="#ffffff"
     borderopacity="1"
     inkscape:showpageshadow="0"
     inkscape:pageopacity="0"
     inkscape:pagecheckerboard="1"
     inkscape:deskcolor="#505050"
     inkscape:zoom="0.89105793"
     inkscape:cx="516.24028"
     inkscape:cy="177.87845"
     inkscape:window-width="1920"
     inkscape:window-height="1001"
     inkscape:window-x="-9"
     inkscape:window-y="-9"
     inkscape:window-maximized="1"
     inkscape:current-layer="svg1" />
  <defs
     id="defs1" />
  <g
     id="g1"
     transform="matrix(0.10743917,0,0,0.09960691,35.838581,-0.23496077)">
    <path
       style="display:inline;fill:#00019d;fill-opacity:1"
       d="m 1025.3249,1245.6131 c -46.72624,11.5155 -110.36887,30.9827 -157.1652,45.9575 -46.79634,14.9748 -76.74519,25.457 -116.18525,45.377 -39.44005,19.92 -88.36879,49.2766 -124.94473,72.6248 -36.57594,23.3483 -60.79717,40.687 -91.57105,65.3723 -30.77388,24.6853 -68.09844,56.7156 -95.36461,81.2684 -27.26616,24.5528 -44.47252,41.6268 -61.2823,59.4955 -16.80979,17.8687 -33.22195,36.5309 -44.73728,50.3626 -11.51532,13.8316 -18.13314,22.8318 -37.39172,50.7601 -19.25858,27.9282 -51.15648,74.7824 -74.65038,112.6374 -23.4939,37.855 -38.58257,66.7088 -53.93639,98.6077 -15.35382,31.8989 -30.97189,66.841 -47.3846,108.667 -16.41272,41.826 -33.619055,90.5332 -47.516868,137.1241 -13.897813,46.5908 -24.48634,91.0626 -32.163226,126.5352 -7.676887,35.4725 -12.441721,61.9438 -17.471422,95.6958 -5.029702,33.752 -10.323961,74.7825 -14.1623987,108.6667 -3.8384377,33.8842 -6.2208523,60.6202 -7.67681,105.2259 -1.45595769,44.6057 -1.98538308,107.0779 -1.19120901,156.5806 0.79417401,49.5027 2.91187821,86.0331 8.33869511,139.5069 5.4268166,53.4739 14.1623406,123.8875 22.1039616,180.5377 7.941622,56.6501 15.088873,99.5336 25.413027,150.6249 10.324154,51.0912 23.824517,110.3869 36.663483,161.478 12.838967,51.0911 25.015757,93.9746 40.766677,143.8746 15.75093,49.8999 35.07498,106.8132 53.87018,157.772 18.79519,50.9587 37.06039,95.9599 61.41479,152.2132 24.3544,56.2534 54.79638,123.7552 82.85677,181.3319 28.06039,57.5767 53.73758,105.2251 74.91521,142.5507 21.17764,37.3255 37.85455,64.3262 59.82644,98.8724 21.97189,34.5461 49.23735,76.6355 71.60622,110.1226 22.36887,33.4871 39.83996,58.3702 68.03285,97.0196 28.19289,38.6494 67.10571,91.0626 111.04943,144.4039 43.94371,53.3412 92.91563,107.6074 133.81494,148.5067 40.89931,40.8992 73.72375,68.4294 108.93167,94.5044 35.20792,26.075 72.7972,50.6933 107.7404,69.0913 34.9431,18.3981 67.238,30.5748 94.5043,39.443 27.2662,8.8681 49.5021,14.4271 81.7981,17.4714 32.2961,3.0442 74.6502,3.5737 109.7256,1.3235 35.0755,-2.2501 62.8704,-7.2797 101.6521,-17.2068 38.7817,-9.927 88.5478,-24.751 140.5655,-43.6786 52.0177,-18.9276 106.2838,-41.9576 152.0805,-60.0909 45.7966,-18.1334 83.1212,-31.3691 117.4025,-41.6932 34.2814,-10.324 65.5175,-17.736 97.4164,-23.4275 31.8989,-5.6914 64.4586,-9.6621 96.8869,-11.9122 32.4283,-2.2501 64.7233,-2.7796 98.2105,-1.7207 33.4872,1.0589 68.1646,3.706 105.3579,8.7358 37.1934,5.0297 76.9003,12.4417 110.9169,21.0451 34.0166,8.6034 62.3409,18.3978 90.2689,28.5896 27.9281,10.1917 55.4583,20.7803 81.0038,31.3691 25.5456,10.5888 49.1051,21.1774 79.0186,33.884 29.9135,12.7066 66.1792,27.5306 103.2401,39.1782 37.061,11.6477 74.915,20.1185 109.7258,25.81 34.8107,5.6915 66.5763,8.6033 105.2257,7.8091 38.6493,-0.7942 84.1799,-5.2943 127.8589,-15.3537 43.6789,-10.0595 85.5036,-25.6775 119.1231,-41.0313 33.6194,-15.3539 59.0319,-30.4425 91.3279,-53.0763 32.296,-22.6337 71.4736,-52.811 111.8436,-89.4749 40.3699,-36.6639 81.9299,-79.8121 130.3739,-139.1098 48.444,-59.2977 103.769,-134.7409 151.0216,-202.5094 47.2526,-67.7685 86.4302,-127.8583 120.5791,-183.9791 34.149,-56.1208 63.2674,-108.2693 97.4165,-175.5086 34.149,-67.2393 73.3266,-149.565 103.1076,-217.9953 29.781,-68.4302 50.1639,-122.9611 61.8115,-155.5216 11.6476,-32.5604 14.5595,-43.1489 3.044,-54.0025 -11.5155,-10.8536 -37.4574,-21.9715 -69.2239,-39.4432 -31.7666,-17.4716 -69.3559,-41.2958 -112.7702,-72.2682 -43.4143,-30.9724 -92.6509,-69.0911 -134.3444,-107.211 -41.6935,-38.1198 -75.8414,-76.2385 -105.8872,-113.2994 -30.0458,-37.0609 -55.9877,-73.0619 -84.5776,-122.5649 -28.5899,-49.5029 -59.826,-112.5046 -80.8712,-167.1694 -21.0453,-54.6648 -31.8985,-100.9896 -39.9725,-136.9915 -8.074,-36.002 -13.3682,-61.6791 -17.8685,-95.5635 -4.5002,-33.8844 -8.2062,-75.9738 -10.0592,-118.5939 -1.853,-42.62 -1.853,-85.7682 0.9266,-126.2705 2.7796,-40.5023 8.3385,-78.3563 15.2213,-115.2849 6.8827,-36.9285 15.0888,-72.9295 26.6042,-111.1817 11.5154,-38.2522 26.3394,-78.7533 48.1789,-125.3443 21.8396,-46.5909 50.6933,-99.2688 79.945,-145.3302 29.2516,-46.0614 58.8995,-85.5036 90.5337,-122.8293 31.6342,-37.3256 65.2527,-72.5324 97.9458,-103.24 32.693,-30.7076 64.4586,-56.9142 90.2688,-77.0329 25.8102,-20.1187 45.6637,-34.1485 59.1644,-43.149 13.5007,-9.0005 20.648,-12.9712 19.7214,-21.707 -0.9266,-8.7359 -9.9268,-22.2362 -32.693,-50.5615 -22.7662,-28.3253 -59.2966,-71.4735 -97.0193,-109.858 -37.7228,-38.3845 -76.6356,-72.0031 -116.7409,-102.1812 -40.1052,-30.1782 -81.4004,-56.9142 -134.3447,-84.5776 -52.9443,-27.6633 -117.5343,-56.2523 -185.3029,-78.8859 -67.7686,-22.6336 -138.7117,-39.3105 -206.2155,-50.2964 -67.5039,-10.9859 -131.5644,-16.2801 -177.0962,-18.7949 -45.5319,-2.5149 -72.5326,-2.2501 -101.2548,-0.3971 -28.7223,1.8531 -59.1643,5.2944 -97.946,12.1771 -38.7817,6.8828 -85.9006,17.2066 -127.8588,28.4573 -41.9583,11.2506 -78.7534,23.4274 -135.9333,44.6052 -57.18,21.1778 -134.7409,51.355 -192.7146,73.3268 -57.9737,21.9717 -96.3571,35.7368 -128.653,45.7962 -32.2959,10.0594 -58.5025,16.4125 -80.6067,20.3833 -22.1041,3.9707 -40.1046,5.559 -63.6648,3.9707 -23.5602,-1.5884 -52.6787,-6.3532 -88.9456,-15.4861 -36.2668,-9.133 -79.6797,-22.6333 -124.947,-39.0461 -45.2673,-16.4127 -92.3862,-35.7367 -129.5794,-50.6934 -37.1932,-14.9567 -64.4587,-25.5453 -106.6818,-39.7079 -42.2232,-14.1626 -99.4012,-31.8984 -145.7272,-44.0755 -46.3261,-12.1771 -81.7977,-18.7949 -118.7263,-22.5009 -36.9285,-3.7061 -75.3119,-4.5002 -110.3874,-3.4413 -35.0755,1.0589 -66.8411,3.9707 -97.6295,7.2087 -30.7883,3.238 -60.5976,6.8019 -107.3238,18.3175 z"
       id="path1" />
    <path
       style="fill:#00009e;fill-opacity:1"
       d="m 2065.3897,795.71974 c -6.7386,24.52112 -14.6004,52.9731 -21.5262,87.97696 -6.9259,35.00386 -12.9156,76.55791 -15.9106,116.6157 -2.9949,40.0578 -2.9949,78.6169 -2.6205,104.0741 0.3743,25.4572 1.1231,37.8111 12.3543,44.3625 11.2313,6.5514 32.9442,7.3002 65.3275,4.8667 32.3833,-2.4334 75.4347,-8.0488 114.1822,-15.1619 38.7475,-7.1131 73.1887,-15.7234 107.0694,-26.2058 33.8806,-10.4824 67.1987,-22.8363 103.3256,-40.9934 36.1269,-18.1571 75.0605,-42.1162 118.1133,-72.44041 43.0528,-30.3242 90.2223,-67.01157 134.5853,-107.81816 44.3631,-40.80659 85.9171,-85.72987 124.103,-135.33421 38.1859,-49.60434 73.0015,-103.88669 96.774,-146.1906 23.7725,-42.30391 36.5008,-72.62714 52.786,-115.68004 16.2852,-43.05289 36.1264,-98.83264 49.9781,-150.68314 13.8517,-51.85049 21.7133,-99.76866 26.5801,-145.06765 4.8668,-45.29899 6.7386,-87.97612 6.7385,-120.920759 0,-32.944642 -1.8718,-56.155011 -12.5415,-66.824484 -10.6697,-10.66947364 -30.1364,-8.7976771 -58.776,-4.6795655 -28.6395,4.1181115 -66.45,10.4822535 -112.3107,23.2109645 -45.8606,12.72871 -99.7685,31.821092 -144.5059,50.539705 -44.7374,18.718612 -80.3016,37.062269 -109.3154,53.160259 -29.0138,16.09799 -51.4754,29.94932 -76.7456,46.6089 -25.2701,16.65958 -53.3471,36.12631 -80.8635,57.65273 -27.5163,21.52642 -54.4703,45.11116 -80.3019,69.44535 -25.8317,24.3342 -50.5395,49.41636 -73.189,76.18398 -22.6495,26.76762 -43.2393,55.21902 -63.6426,84.98161 -20.4033,29.7626 -40.6188,60.83454 -58.963,91.53304 -18.3442,30.6985 -34.8161,61.02173 -48.2935,89.47398 -13.4773,28.45226 -23.9594,55.03187 -32.0084,78.61727 -8.0489,23.58541 -13.6644,44.17524 -20.403,68.69637 z"
       id="path2" />
  </g>
</svg>
